<svg xmlns="http://www.w3.org/2000/svg" version="1.1" xmlns:xlink="http://www.w3.org/1999/xlink" xmlns:svgjs="http://svgjs.dev/svgjs" width="1500" height="223" viewBox="0 0 1500 223"><g transform="matrix(1,0,0,1,-0.9090909090909918,-0.10536725646223033)"><svg viewBox="0 0 396 59" data-background-color="#ffffff" preserveAspectRatio="xMidYMid meet" height="223" width="1500" xmlns="http://www.w3.org/2000/svg" xmlns:xlink="http://www.w3.org/1999/xlink"><g id="tight-bounds" transform="matrix(1,0,0,1,0.2400000000000091,0.027877435566239228)"><svg viewBox="0 0 395.52 58.94424512886752" height="58.94424512886752" width="395.52"><g><svg viewBox="0 0 476.85551132362957 71.0656557203466" height="58.94424512886752" width="395.52"><g transform="matrix(1,0,0,1,81.33551132362959,6.964868493576347)"><svg viewBox="0 0 395.52 57.135918733193904" height="57.135918733193904" width="395.52"><g id="textblocktransform"><svg viewBox="0 0 395.52 57.135918733193904" height="57.135918733193904" width="395.52" id="textblock"><g><svg viewBox="0 0 395.52 57.135918733193904" height="57.135918733193904" width="395.52"><g transform="matrix(1,0,0,1,0,0)"><svg width="395.52" viewBox="1.75 -36.75 334.67 48.35" height="57.135918733193904" data-palette-color="#111111"><path d="M11 0.6L11 0.6Q8.05 0.6 5.68-0.15 3.3-0.9 1.75-2.1L1.75-2.1 3.65-5.85Q4.95-4.75 6.93-4.03 8.9-3.3 11.15-3.3L11.15-3.3Q13.95-3.3 15.38-4.23 16.8-5.15 16.8-6.6L16.8-6.6Q16.8-7.65 16.28-8.45 15.75-9.25 14.35-10.03 12.95-10.8 10.3-11.7L10.3-11.7Q6.65-12.95 4.83-14.68 3-16.4 3-19.45L3-19.45Q3-22.45 5.63-24.53 8.25-26.6 12.9-26.6L12.9-26.6Q15.4-26.6 17.35-26.08 19.3-25.55 20.85-24.75L20.85-24.75 19.6-21.05Q18.25-21.85 16.53-22.35 14.8-22.85 12.7-22.85L12.7-22.85Q10.1-22.85 8.75-21.8 7.4-20.75 7.4-19.5L7.4-19.5Q7.4-18.3 8.45-17.45 9.5-16.6 12.55-15.6L12.55-15.6Q17.5-13.95 19.45-11.95 21.4-9.95 21.4-6.95L21.4-6.95Q21.4-3.45 18.57-1.43 15.75 0.6 11 0.6ZM37.35 0.6L37.35 0.6Q34.1 0.6 31.45-1.05 28.8-2.7 27.22-5.73 25.65-8.75 25.65-12.85L25.65-12.85Q25.65-16.75 27.22-19.85 28.8-22.95 31.57-24.78 34.35-26.6 37.95-26.6L37.95-26.6Q40.2-26.6 42.02-25.83 43.85-25.05 45.2-23.9L45.2-23.9 45.2-26 49.3-26 49.3-6.3Q49.3-4.4 50.22-3.83 51.15-3.25 52.25-3.25L52.25-3.25 51.3 0.25Q46.5 0.25 45.5-3.65L45.5-3.65Q44.35-2.05 42.37-0.73 40.4 0.6 37.35 0.6ZM38.35-3.4L38.35-3.4Q40.25-3.4 41.95-4.33 43.65-5.25 44.8-6.65L44.8-6.65 44.8-20.6Q43.45-21.55 41.82-22.13 40.2-22.7 38.4-22.7L38.4-22.7Q36-22.7 34.17-21.48 32.35-20.25 31.3-18.07 30.25-15.9 30.25-13L30.25-13Q30.25-10.2 31.3-8.03 32.35-5.85 34.2-4.63 36.05-3.4 38.35-3.4ZM68.9 0L64.2 0 53.75-24.8 57.85-26.5 66.7-5.1 75.55-26.5 79.4-24.8 68.9 0ZM93.29 0.6L93.29 0.6Q87.69 0.6 84.42-2.98 81.14-6.55 81.14-13L81.14-13Q81.14-16.9 82.62-19.98 84.09-23.05 86.74-24.83 89.39-26.6 92.89-26.6L92.89-26.6Q96.64-26.6 99.12-24.98 101.59-23.35 102.84-20.6 104.09-17.85 104.09-14.55L104.09-14.55Q104.09-12.8 103.94-11.15L103.94-11.15 85.74-11.15Q86.19-7.5 88.29-5.45 90.39-3.4 93.84-3.4L93.84-3.4Q96.09-3.4 97.89-3.88 99.69-4.35 101.34-5.1L101.34-5.1 102.39-1.25Q100.59-0.45 98.34 0.08 96.09 0.6 93.29 0.6ZM85.69-14.8L85.69-14.8 99.94-14.8Q99.94-18.6 98.04-20.65 96.14-22.7 92.79-22.7L92.79-22.7Q89.89-22.7 87.99-20.68 86.09-18.65 85.69-14.8ZM114.59 0L110.09 0 110.09-26 114.44-26 114.44-21.65Q115.84-23.75 117.99-25.18 120.14-26.6 122.89-26.6L122.89-26.6Q125.99-26.6 127.97-25.1 129.94-23.6 130.74-21.1L130.74-21.1Q132.29-23.4 134.42-25 136.54-26.6 139.69-26.6L139.69-26.6Q143.94-26.6 146.02-23.93 148.09-21.25 148.09-16.95L148.09-16.95 148.09 0 143.59 0 143.59-16.6Q143.59-19.3 142.34-20.98 141.09-22.65 138.89-22.65L138.89-22.65Q136.64-22.65 134.72-20.98 132.79-19.3 131.34-17.05L131.34-17.05 131.34 0 126.84 0 126.84-16.6Q126.84-19.3 125.59-20.98 124.34-22.65 122.14-22.65L122.14-22.65Q119.94-22.65 117.99-21.03 116.04-19.4 114.59-17.2L114.59-17.2 114.59 0ZM156.49 11.6L156.49 11.6Q154.99 11.6 153.86 11.3 152.74 11 152.09 10.6L152.09 10.6 153.09 6.85Q153.69 7.2 154.59 7.45 155.49 7.7 156.59 7.7L156.59 7.7Q158.69 7.7 160.34 6.35 161.99 5 163.49 1.05L163.49 1.05 164.64-1.95 162.24-1.95 152.09-24.8 156.09-26.6 165.79-4.95 173.34-26.4 177.49-24.8 167.94 1.3Q166.49 5.3 164.79 7.55 163.09 9.8 161.04 10.7 158.99 11.6 156.49 11.6ZM186.49 0L181.99 0 181.99-26 186.34-26 186.34-20.35Q186.99-22 188.09-23.43 189.19-24.85 190.84-25.73 192.49-26.6 194.69-26.6L194.69-26.6Q195.44-26.6 196.19-26.53 196.94-26.45 197.44-26.3L197.44-26.3 196.09-21.65Q195.14-22.05 193.84-22.05L193.84-22.05Q191.99-22.05 190.31-21 188.64-19.95 187.56-17.75 186.49-15.55 186.49-12.15L186.49-12.15 186.49 0ZM210.83 0.6L210.83 0.6Q205.23 0.6 201.96-2.98 198.68-6.55 198.68-13L198.68-13Q198.68-16.9 200.16-19.98 201.63-23.05 204.28-24.83 206.93-26.6 210.43-26.6L210.43-26.6Q214.18-26.6 216.66-24.98 219.13-23.35 220.38-20.6 221.63-17.85 221.63-14.55L221.63-14.55Q221.63-12.8 221.48-11.15L221.48-11.15 203.28-11.15Q203.73-7.5 205.83-5.45 207.93-3.4 211.38-3.4L211.38-3.4Q213.63-3.4 215.43-3.88 217.23-4.35 218.88-5.1L218.88-5.1 219.93-1.25Q218.13-0.45 215.88 0.08 213.63 0.6 210.83 0.6ZM203.23-14.8L203.23-14.8 217.48-14.8Q217.48-18.6 215.58-20.65 213.68-22.7 210.33-22.7L210.33-22.7Q207.43-22.7 205.53-20.68 203.63-18.65 203.23-14.8ZM238.13 0.6L238.13 0.6Q234.43 0.6 231.66-1.13 228.88-2.85 227.38-5.93 225.88-9 225.88-13L225.88-13Q225.88-16.75 227.41-19.85 228.93-22.95 231.78-24.78 234.63-26.6 238.48-26.6L238.48-26.6Q240.68-26.6 242.36-26.2 244.03-25.8 245.58-25.05L245.58-25.05 244.23-21.25Q242.83-21.95 241.56-22.28 240.28-22.6 238.73-22.6L238.73-22.6Q235.23-22.6 232.86-20.08 230.48-17.55 230.48-13.1L230.48-13.1Q230.48-10.4 231.48-8.2 232.48-6 234.26-4.7 236.03-3.4 238.43-3.4L238.43-3.4Q240.33-3.4 241.68-3.83 243.03-4.25 244.58-5.05L244.58-5.05 245.98-1.25Q244.43-0.4 242.51 0.1 240.58 0.6 238.13 0.6ZM261.13 0.6L261.13 0.6Q255.53 0.6 252.25-2.98 248.98-6.55 248.98-13L248.98-13Q248.98-16.9 250.45-19.98 251.93-23.05 254.58-24.83 257.23-26.6 260.73-26.6L260.73-26.6Q264.48-26.6 266.95-24.98 269.43-23.35 270.68-20.6 271.93-17.85 271.93-14.55L271.93-14.55Q271.93-12.8 271.78-11.15L271.78-11.15 253.58-11.15Q254.03-7.5 256.13-5.45 258.23-3.4 261.68-3.4L261.68-3.4Q263.93-3.4 265.73-3.88 267.53-4.35 269.18-5.1L269.18-5.1 270.23-1.25Q268.43-0.45 266.18 0.08 263.93 0.6 261.13 0.6ZM253.53-14.8L253.53-14.8 267.78-14.8Q267.78-18.6 265.88-20.65 263.98-22.7 260.63-22.7L260.63-22.7Q257.73-22.7 255.83-20.68 253.93-18.65 253.53-14.8ZM282.43 0L277.93 0 277.93-26 282.43-26 282.43 0ZM280.18-30.45L280.18-30.45Q278.88-30.45 277.95-31.4 277.03-32.35 277.03-33.6L277.03-33.6Q277.03-35.05 277.88-35.9 278.73-36.75 280.18-36.75L280.18-36.75Q281.48-36.75 282.4-35.83 283.33-34.9 283.33-33.6L283.33-33.6Q283.33-32.2 282.48-31.33 281.63-30.45 280.18-30.45ZM295.87 11L291.37 11 291.37-19.35Q291.37-21.05 290.55-21.78 289.72-22.5 288.42-22.5L288.42-22.5 289.37-26Q293.97-26 295.12-22.35L295.12-22.35Q295.62-23.1 296.75-24.1 297.87-25.1 299.55-25.85 301.22-26.6 303.37-26.6L303.37-26.6Q306.37-26.6 309-25.03 311.62-23.45 313.22-20.48 314.82-17.5 314.82-13.25L314.82-13.25Q314.82-9.1 313.22-5.98 311.62-2.85 309.05-1.13 306.47 0.6 303.47 0.6L303.47 0.6Q301.17 0.6 299.17-0.33 297.17-1.25 295.87-2.45L295.87-2.45 295.87 11ZM302.57-3.4L302.57-3.4Q305.97-3.4 308.1-6.08 310.22-8.75 310.22-13.1L310.22-13.1Q310.22-16.1 309.15-18.25 308.07-20.4 306.3-21.55 304.52-22.7 302.37-22.7L302.37-22.7Q300.22-22.7 298.5-21.63 296.77-20.55 295.87-19.3L295.87-19.3 295.87-6.5Q297.17-5.15 298.87-4.28 300.57-3.4 302.57-3.4ZM330.17 0.6L330.17 0.6Q326.42 0.6 324.25-1.88 322.07-4.35 322.07-8.95L322.07-8.95 322.07-21.15 317.57-21.15 317.57-25.05 322.17-25.05 323.12-33.25 326.57-33.25 326.57-25.05 333.77-25.05 333.77-21.15 326.57-21.15 326.57-8.6Q326.57-5.7 327.8-4.55 329.02-3.4 330.72-3.4L330.72-3.4Q331.97-3.4 333.1-3.8 334.22-4.2 335.17-4.75L335.17-4.75 336.42-1.15Q335.42-0.55 333.72 0.03 332.02 0.6 330.17 0.6Z" opacity="1" transform="matrix(1,0,0,1,0,0)" fill="#111111" class="wordmark-text-0" data-fill-palette-color="primary" id="text-0"></path></svg></g></svg></g></svg></g></svg></g><g><svg viewBox="0 0 67.84709217277211 71.0656557203466" height="71.0656557203466" width="67.84709217277211"><g><svg version="1.0" xmlns="http://www.w3.org/2000/svg" xmlns:xlink="http://www.w3.org/1999/xlink" x="0" y="0" viewBox="0 0 95.471 100" enable-background="new 0 0 95.471 100" xml:space="preserve" id="icon-0" width="67.84709217277211" height="71.0656557203466" class="icon-icon-0" data-fill-palette-color="accent"><path d="M47.735 0C47.652 2.825 45.997 13.412 27.936 30.934 10.554 47.797 2.439 49.824 0 50 2.439 50.178 10.554 52.204 27.936 69.066 45.997 86.589 47.652 97.177 47.735 100 47.818 97.177 49.474 86.589 67.533 69.066 84.917 52.204 93.031 50.178 95.471 50 93.032 49.824 84.917 47.797 67.533 30.934 49.475 13.412 47.819 2.825 47.735 0" fill="#111111" data-fill-palette-color="accent"></path></svg></g></svg></g></svg></g><defs></defs></svg><rect width="395.52" height="58.94424512886752" fill="none" stroke="none" visibility="hidden"></rect></g></svg></g></svg>